<svg id="Layer_1" data-name="Layer 1" xmlns="http://www.w3.org/2000/svg" viewBox="0 0 100 100"><defs><style>.cls-1{fill:#414042;}.cls-2{fill:#a7a9ac;}</style></defs><path class="cls-1" d="M61.42,69.49h-41a1,1,0,0,1-1-1v-37a1,1,0,0,1,1-1h3.35a1,1,0,0,0,1-1V19.85a1,1,0,0,0-1-1H6.29a1,1,0,0,0-.88,1.47L6.3,22a23.15,23.15,0,0,1,1.24,2.69A7,7,0,0,1,8.1,27V72.18a8.87,8.87,0,0,1-.56,3.08A30,30,0,0,1,6.3,78.12l-.79,1.57a1,1,0,0,0,.9,1.45h55a1,1,0,0,0,1-1V70.49A1,1,0,0,0,61.42,69.49Zm31.9-39.83a18.59,18.59,0,0,0-3.75-5.6A17.5,17.5,0,0,0,77,18.85H41.07a1,1,0,0,0-1,1V29.5a1,1,0,0,0,1,1H78.46l.18,0h0a4.82,4.82,0,0,1,4.39,4.81,3.69,3.69,0,0,1,0,.58,4.49,4.49,0,0,1,0,.64v27a5.75,5.75,0,0,1-1.73,4.2,5.69,5.69,0,0,1-2.84,1.58,1,1,0,0,0-.77,1v9.76a1,1,0,0,0,1.06,1A17,17,0,0,0,84,79.74a17.62,17.62,0,0,0,9.3-9.3,17,17,0,0,0,1.4-6.88v-27A17,17,0,0,0,93.32,29.66Z"/><path class="cls-2" d="M39.75,93.23a11.72,11.72,0,0,1-1.18-2.35,8.41,8.41,0,0,1-.5-2.92V84.14a1,1,0,0,0-1-1H27.76a1,1,0,0,0-1,1v4a6.48,6.48,0,0,1-.56,2.69A17,17,0,0,1,25,93.12l-.46.69a1,1,0,0,0,.83,1.55h14a1,1,0,0,0,.82-1.56C40,93.61,39.87,93.43,39.75,93.23ZM63,4.64a1,1,0,0,0-.82,1.56l.46.68a18.17,18.17,0,0,1,1.23,2.18,5.59,5.59,0,0,1,.56,2.41v4.38a1,1,0,0,0,1,1h9.31a1,1,0,0,0,1-1V11.36a6.88,6.88,0,0,1,.51-2.75,9.79,9.79,0,0,1,1.17-2.07l.22-.29a1,1,0,0,0-.79-1.61ZM63.42,56H39.07a1,1,0,0,0-1,1v9.45a1,1,0,0,1-1,1H27.76a1,1,0,0,1-1-1v-55a5.59,5.59,0,0,0-.56-2.41A18.21,18.21,0,0,0,25,6.88l-.46-.69a1,1,0,0,1,.83-1.55H39.18A1,1,0,0,1,40,6.25l-.22.29a10.27,10.27,0,0,0-1.18,2.07,7.07,7.07,0,0,0-.5,2.75V43.73a1,1,0,0,0,1,1H63.42a1,1,0,0,0,1-1V33.5a1,1,0,0,1,1-1h9.31a1,1,0,0,1,1,1V88a8.18,8.18,0,0,0,.51,2.92,11.2,11.2,0,0,0,1.17,2.35c.12.2.25.38.38.57A1,1,0,0,1,77,95.36H63a1,1,0,0,1-.82-1.56l.46-.68a16.92,16.92,0,0,0,1.23-2.24,6.48,6.48,0,0,0,.56-2.69V57A1,1,0,0,0,63.42,56Z"/></svg>